<svg xmlns="http://www.w3.org/2000/svg" viewBox="0 0 900 700"><defs><linearGradient id="b" x1="0" x2="1"><stop stop-color="#f5e5e2"/><stop offset="1" stop-color="#efe8df"/></linearGradient></defs><rect width="900" height="700" fill="url(#b)"/><g transform="translate(470 340)"><circle r="170" fill="#fff" opacity=".45"/><g fill="#e7a9ad"><circle cx="-100" cy="-20" r="70"/><circle cx="55" cy="-85" r="86"/><circle cx="95" cy="70" r="75"/><circle cx="-35" cy="105" r="92"/></g><g fill="#f8d7d9"><circle cx="-130" cy="90" r="54"/><circle cx="10" cy="15" r="78"/><circle cx="145" cy="-20" r="58"/></g><g stroke="#78937d" stroke-width="15" stroke-linecap="round"><path d="M-30 180l-70 190"/><path d="M35 180l25 190"/><path d="M100 155l120 170"/><path d="M-105 145l-160 135"/></g><g fill="#91a98f"><ellipse cx="-180" cy="220" rx="30" ry="70" transform="rotate(-55 -180 220)"/><ellipse cx="170" cy="210" rx="30" ry="76" transform="rotate(45 170 210)"/><ellipse cx="35" cy="285" rx="35" ry="80" transform="rotate(10 35 285)"/></g></g></svg>
